<svg xmlns="http://www.w3.org/2000/svg" viewBox="0 0 22 16" shape-rendering="crispEdges" role="img" aria-label="merlin pixel-art buddy">
<style>.f0{animation:f0 4s step-end infinite}.f1{animation:f1 4s step-end infinite;opacity:0}
@keyframes f0{0%,90%{opacity:1}90.01%,95%{opacity:0}95.01%,100%{opacity:1}}
@keyframes f1{0%,90%{opacity:0}90.01%,95%{opacity:1}95.01%,100%{opacity:0}}
@media (prefers-reduced-motion: reduce){.f0,.f1,.f2{animation:none}.f0{opacity:1}.f1,.f2{opacity:0}}</style>
<g class="f0"><rect x="9" y="0" width="2" height="1" fill="#7846be"/><rect x="8" y="1" width="4" height="1" fill="#7846be"/><rect x="7" y="2" width="2" height="1" fill="#7846be"/><rect x="9" y="2" width="1" height="1" fill="#ffdc50"/><rect x="10" y="2" width="3" height="1" fill="#7846be"/><rect x="6" y="3" width="8" height="1" fill="#7846be"/><rect x="4" y="4" width="12" height="1" fill="#7846be"/><rect x="5" y="5" width="2" height="1" fill="#e8be98"/><rect x="7" y="5" width="1" height="1" fill="#262220"/><rect x="8" y="5" width="1" height="1" fill="#f0f0f0"/><rect x="9" y="5" width="2" height="1" fill="#e8be98"/><rect x="11" y="5" width="1" height="1" fill="#262220"/><rect x="12" y="5" width="1" height="1" fill="#f0f0f0"/><rect x="13" y="5" width="1" height="1" fill="#e8be98"/><rect x="4" y="6" width="2" height="1" fill="#ebeef5"/><rect x="6" y="6" width="7" height="1" fill="#e8be98"/><rect x="13" y="6" width="2" height="1" fill="#ebeef5"/><rect x="4" y="7" width="11" height="1" fill="#ebeef5"/><rect x="2" y="8" width="1" height="2" fill="#704a28"/><rect x="5" y="8" width="8" height="1" fill="#7846be"/><rect x="4" y="9" width="2" height="2" fill="#7846be"/><rect x="6" y="9" width="5" height="2" fill="#a573e6"/><rect x="11" y="9" width="3" height="2" fill="#7846be"/><rect x="2" y="10" width="1" height="1" fill="#d6a83c"/><rect x="2" y="11" width="1" height="4" fill="#704a28"/><rect x="5" y="11" width="8" height="3" fill="#7846be"/><rect x="4" y="14" width="10" height="1" fill="#7846be"/></g><g class="f1"><rect x="9" y="0" width="2" height="1" fill="#7846be"/><rect x="8" y="1" width="4" height="1" fill="#7846be"/><rect x="7" y="2" width="2" height="1" fill="#7846be"/><rect x="9" y="2" width="1" height="1" fill="#ffdc50"/><rect x="10" y="2" width="3" height="1" fill="#7846be"/><rect x="6" y="3" width="8" height="1" fill="#7846be"/><rect x="4" y="4" width="12" height="1" fill="#7846be"/><rect x="5" y="5" width="2" height="1" fill="#e8be98"/><rect x="7" y="5" width="2" height="1" fill="#262220"/><rect x="9" y="5" width="2" height="1" fill="#e8be98"/><rect x="11" y="5" width="2" height="1" fill="#262220"/><rect x="13" y="5" width="1" height="1" fill="#e8be98"/><rect x="4" y="6" width="2" height="1" fill="#ebeef5"/><rect x="6" y="6" width="7" height="1" fill="#e8be98"/><rect x="13" y="6" width="2" height="1" fill="#ebeef5"/><rect x="4" y="7" width="11" height="1" fill="#ebeef5"/><rect x="2" y="8" width="1" height="2" fill="#704a28"/><rect x="5" y="8" width="8" height="1" fill="#7846be"/><rect x="4" y="9" width="2" height="2" fill="#7846be"/><rect x="6" y="9" width="5" height="2" fill="#a573e6"/><rect x="11" y="9" width="3" height="2" fill="#7846be"/><rect x="2" y="10" width="1" height="1" fill="#d6a83c"/><rect x="2" y="11" width="1" height="4" fill="#704a28"/><rect x="5" y="11" width="8" height="3" fill="#7846be"/><rect x="4" y="14" width="10" height="1" fill="#7846be"/></g></svg>
