<svg xmlns="http://www.w3.org/2000/svg" viewBox="0 0 46 16" shape-rendering="crispEdges" role="img" aria-label="Robin Hood buddy firing an arrow toward the prompt">
<style>
.i0{animation:i0 8s step-end infinite}
.i1{animation:i1 8s step-end infinite;opacity:0}
.s0{animation:s0 8s step-end infinite;opacity:0}
.s1{animation:s1 8s step-end infinite;opacity:0}
.s2{animation:s2 8s step-end infinite;opacity:0}
.arrow{animation:fly 8s linear infinite;opacity:0}
@keyframes i0{0%,20%{opacity:1}20.01%,24%{opacity:0}24.01%,50%{opacity:1}50.01%,82%{opacity:0}82.01%,100%{opacity:1}}
@keyframes i1{0%,20%{opacity:0}20.01%,24%{opacity:1}24.01%,100%{opacity:0}}
@keyframes s0{0%,50%{opacity:0}50.01%,58%{opacity:1}58.01%,100%{opacity:0}}
@keyframes s1{0%,58%{opacity:0}58.01%,70%{opacity:1}70.01%,100%{opacity:0}}
@keyframes s2{0%,70%{opacity:0}70.01%,82%{opacity:1}82.01%,100%{opacity:0}}
@keyframes fly{0%,70%{opacity:0;transform:translateX(0)}70.5%{opacity:1}81%{opacity:1;transform:translateX(-30px)}81.5%,100%{opacity:0;transform:translateX(-30px)}}
@media (prefers-reduced-motion: reduce){.i0,.i1,.s0,.s1,.s2,.arrow{animation:none}.i0{opacity:1}.i1,.s0,.s1,.s2,.arrow{opacity:0}}</style>
<g class="i0" transform="translate(24,0)"><rect x="7" y="0" width="6" height="1" fill="#226633"/><rect x="5" y="1" width="2" height="1" fill="#226633"/><rect x="7" y="1" width="6" height="1" fill="#489e4a"/><rect x="13" y="1" width="2" height="2" fill="#226633"/><rect x="16" y="1" width="2" height="1" fill="#cc3333"/><rect x="4" y="2" width="2" height="1" fill="#226633"/><rect x="6" y="2" width="7" height="1" fill="#489e4a"/><rect x="15" y="2" width="3" height="1" fill="#cc3333"/><rect x="3" y="3" width="13" height="1" fill="#226633"/><rect x="16" y="3" width="1" height="1" fill="#cc3333"/><rect x="5" y="4" width="1" height="1" fill="#7a522e"/><rect x="6" y="4" width="7" height="1" fill="#e8be98"/><rect x="13" y="4" width="1" height="1" fill="#7a522e"/><rect x="4" y="5" width="1" height="1" fill="#e8be98"/><rect x="5" y="5" width="1" height="1" fill="#262220"/><rect x="6" y="5" width="1" height="1" fill="#f0f0f0"/><rect x="7" y="5" width="3" height="1" fill="#e8be98"/><rect x="10" y="5" width="1" height="1" fill="#262220"/><rect x="11" y="5" width="1" height="1" fill="#f0f0f0"/><rect x="12" y="5" width="2" height="1" fill="#e8be98"/><rect x="14" y="5" width="1" height="2" fill="#c6946e"/><rect x="4" y="6" width="10" height="1" fill="#e8be98"/><rect x="5" y="7" width="1" height="1" fill="#c6946e"/><rect x="6" y="7" width="6" height="1" fill="#e8be98"/><rect x="12" y="7" width="1" height="1" fill="#c6946e"/><rect x="2" y="8" width="1" height="2" fill="#704a28"/><rect x="6" y="8" width="2" height="1" fill="#226633"/><rect x="8" y="8" width="2" height="1" fill="#489e4a"/><rect x="10" y="8" width="2" height="1" fill="#226633"/><rect x="12" y="8" width="1" height="1" fill="#489e4a"/><rect x="5" y="9" width="1" height="2" fill="#226633"/><rect x="6" y="9" width="7" height="2" fill="#489e4a"/><rect x="13" y="9" width="1" height="2" fill="#226633"/><rect x="15" y="9" width="2" height="3" fill="#9e7042"/><rect x="2" y="10" width="1" height="1" fill="#f0f0f0"/><rect x="2" y="11" width="1" height="2" fill="#704a28"/><rect x="6" y="11" width="1" height="1" fill="#226633"/><rect x="7" y="11" width="2" height="1" fill="#704a28"/><rect x="9" y="11" width="1" height="1" fill="#d6a83c"/><rect x="10" y="11" width="2" height="1" fill="#704a28"/><rect x="12" y="11" width="1" height="1" fill="#226633"/><rect x="6" y="12" width="2" height="1" fill="#226633"/><rect x="8" y="12" width="3" height="1" fill="#489e4a"/><rect x="11" y="12" width="2" height="1" fill="#226633"/><rect x="7" y="13" width="2" height="2" fill="#226633"/><rect x="10" y="13" width="2" height="2" fill="#226633"/><rect x="6" y="15" width="3" height="1" fill="#704a28"/><rect x="10" y="15" width="3" height="1" fill="#704a28"/></g>
<g class="i1" transform="translate(24,0)"><rect x="7" y="0" width="6" height="1" fill="#226633"/><rect x="5" y="1" width="2" height="1" fill="#226633"/><rect x="7" y="1" width="6" height="1" fill="#489e4a"/><rect x="13" y="1" width="2" height="2" fill="#226633"/><rect x="16" y="1" width="2" height="1" fill="#cc3333"/><rect x="4" y="2" width="2" height="1" fill="#226633"/><rect x="6" y="2" width="7" height="1" fill="#489e4a"/><rect x="15" y="2" width="3" height="1" fill="#cc3333"/><rect x="3" y="3" width="13" height="1" fill="#226633"/><rect x="16" y="3" width="1" height="1" fill="#cc3333"/><rect x="5" y="4" width="1" height="1" fill="#7a522e"/><rect x="6" y="4" width="7" height="1" fill="#e8be98"/><rect x="13" y="4" width="1" height="1" fill="#7a522e"/><rect x="4" y="5" width="1" height="1" fill="#e8be98"/><rect x="5" y="5" width="2" height="1" fill="#262220"/><rect x="7" y="5" width="3" height="1" fill="#e8be98"/><rect x="10" y="5" width="2" height="1" fill="#262220"/><rect x="12" y="5" width="2" height="1" fill="#e8be98"/><rect x="14" y="5" width="1" height="2" fill="#c6946e"/><rect x="4" y="6" width="10" height="1" fill="#e8be98"/><rect x="5" y="7" width="1" height="1" fill="#c6946e"/><rect x="6" y="7" width="6" height="1" fill="#e8be98"/><rect x="12" y="7" width="1" height="1" fill="#c6946e"/><rect x="2" y="8" width="1" height="2" fill="#704a28"/><rect x="6" y="8" width="2" height="1" fill="#226633"/><rect x="8" y="8" width="2" height="1" fill="#489e4a"/><rect x="10" y="8" width="2" height="1" fill="#226633"/><rect x="12" y="8" width="1" height="1" fill="#489e4a"/><rect x="5" y="9" width="1" height="2" fill="#226633"/><rect x="6" y="9" width="7" height="2" fill="#489e4a"/><rect x="13" y="9" width="1" height="2" fill="#226633"/><rect x="15" y="9" width="2" height="3" fill="#9e7042"/><rect x="2" y="10" width="1" height="1" fill="#f0f0f0"/><rect x="2" y="11" width="1" height="2" fill="#704a28"/><rect x="6" y="11" width="1" height="1" fill="#226633"/><rect x="7" y="11" width="2" height="1" fill="#704a28"/><rect x="9" y="11" width="1" height="1" fill="#d6a83c"/><rect x="10" y="11" width="2" height="1" fill="#704a28"/><rect x="12" y="11" width="1" height="1" fill="#226633"/><rect x="6" y="12" width="2" height="1" fill="#226633"/><rect x="8" y="12" width="3" height="1" fill="#489e4a"/><rect x="11" y="12" width="2" height="1" fill="#226633"/><rect x="7" y="13" width="2" height="2" fill="#226633"/><rect x="10" y="13" width="2" height="2" fill="#226633"/><rect x="6" y="15" width="3" height="1" fill="#704a28"/><rect x="10" y="15" width="3" height="1" fill="#704a28"/></g>
<g class="s0" transform="translate(24,0)"><rect x="7" y="0" width="6" height="1" fill="#226633"/><rect x="5" y="1" width="2" height="1" fill="#226633"/><rect x="7" y="1" width="6" height="1" fill="#489e4a"/><rect x="13" y="1" width="2" height="2" fill="#226633"/><rect x="16" y="1" width="2" height="1" fill="#cc3333"/><rect x="4" y="2" width="2" height="1" fill="#226633"/><rect x="6" y="2" width="7" height="1" fill="#489e4a"/><rect x="15" y="2" width="3" height="1" fill="#cc3333"/><rect x="3" y="3" width="13" height="1" fill="#226633"/><rect x="16" y="3" width="1" height="1" fill="#cc3333"/><rect x="5" y="4" width="1" height="1" fill="#7a522e"/><rect x="6" y="4" width="7" height="1" fill="#e8be98"/><rect x="13" y="4" width="1" height="1" fill="#7a522e"/><rect x="4" y="5" width="1" height="1" fill="#e8be98"/><rect x="5" y="5" width="1" height="1" fill="#262220"/><rect x="6" y="5" width="1" height="1" fill="#f0f0f0"/><rect x="7" y="5" width="3" height="1" fill="#e8be98"/><rect x="10" y="5" width="1" height="1" fill="#262220"/><rect x="11" y="5" width="1" height="1" fill="#f0f0f0"/><rect x="12" y="5" width="2" height="1" fill="#e8be98"/><rect x="14" y="5" width="1" height="2" fill="#c6946e"/><rect x="4" y="6" width="10" height="1" fill="#e8be98"/><rect x="5" y="7" width="1" height="1" fill="#c6946e"/><rect x="6" y="7" width="6" height="1" fill="#e8be98"/><rect x="12" y="7" width="1" height="1" fill="#c6946e"/><rect x="1" y="8" width="1" height="2" fill="#704a28"/><rect x="6" y="8" width="2" height="1" fill="#226633"/><rect x="8" y="8" width="2" height="1" fill="#489e4a"/><rect x="10" y="8" width="2" height="1" fill="#226633"/><rect x="12" y="8" width="1" height="1" fill="#489e4a"/><rect x="3" y="9" width="2" height="2" fill="#e8be98"/><rect x="5" y="9" width="1" height="2" fill="#226633"/><rect x="6" y="9" width="7" height="2" fill="#489e4a"/><rect x="13" y="9" width="1" height="2" fill="#226633"/><rect x="15" y="9" width="2" height="3" fill="#9e7042"/><rect x="1" y="10" width="1" height="1" fill="#f0f0f0"/><rect x="1" y="11" width="1" height="2" fill="#704a28"/><rect x="6" y="11" width="1" height="1" fill="#226633"/><rect x="7" y="11" width="2" height="1" fill="#704a28"/><rect x="9" y="11" width="1" height="1" fill="#d6a83c"/><rect x="10" y="11" width="2" height="1" fill="#704a28"/><rect x="12" y="11" width="1" height="1" fill="#226633"/><rect x="6" y="12" width="2" height="1" fill="#226633"/><rect x="8" y="12" width="3" height="1" fill="#489e4a"/><rect x="11" y="12" width="2" height="1" fill="#226633"/><rect x="7" y="13" width="2" height="2" fill="#226633"/><rect x="10" y="13" width="2" height="2" fill="#226633"/><rect x="6" y="15" width="3" height="1" fill="#704a28"/><rect x="10" y="15" width="3" height="1" fill="#704a28"/></g>
<g class="s1" transform="translate(24,0)"><rect x="7" y="0" width="6" height="1" fill="#226633"/><rect x="5" y="1" width="2" height="1" fill="#226633"/><rect x="7" y="1" width="6" height="1" fill="#489e4a"/><rect x="13" y="1" width="2" height="2" fill="#226633"/><rect x="16" y="1" width="2" height="1" fill="#cc3333"/><rect x="4" y="2" width="2" height="1" fill="#226633"/><rect x="6" y="2" width="7" height="1" fill="#489e4a"/><rect x="15" y="2" width="3" height="1" fill="#cc3333"/><rect x="3" y="3" width="13" height="1" fill="#226633"/><rect x="16" y="3" width="1" height="1" fill="#cc3333"/><rect x="5" y="4" width="1" height="1" fill="#7a522e"/><rect x="6" y="4" width="7" height="1" fill="#e8be98"/><rect x="13" y="4" width="1" height="1" fill="#7a522e"/><rect x="4" y="5" width="1" height="1" fill="#e8be98"/><rect x="5" y="5" width="1" height="1" fill="#262220"/><rect x="6" y="5" width="1" height="1" fill="#f0f0f0"/><rect x="7" y="5" width="3" height="1" fill="#e8be98"/><rect x="10" y="5" width="1" height="1" fill="#262220"/><rect x="11" y="5" width="1" height="1" fill="#f0f0f0"/><rect x="12" y="5" width="2" height="1" fill="#e8be98"/><rect x="14" y="5" width="1" height="2" fill="#c6946e"/><rect x="0" y="6" width="1" height="7" fill="#704a28"/><rect x="4" y="6" width="10" height="1" fill="#e8be98"/><rect x="5" y="7" width="1" height="1" fill="#c6946e"/><rect x="6" y="7" width="6" height="1" fill="#e8be98"/><rect x="12" y="7" width="1" height="1" fill="#c6946e"/><rect x="2" y="8" width="1" height="3" fill="#f0f0f0"/><rect x="3" y="8" width="4" height="1" fill="#704a28"/><rect x="7" y="8" width="2" height="1" fill="#e8be98"/><rect x="9" y="8" width="4" height="1" fill="#f0f0f0"/><rect x="13" y="8" width="1" height="1" fill="#c6946e"/><rect x="5" y="9" width="1" height="2" fill="#226633"/><rect x="6" y="9" width="7" height="2" fill="#489e4a"/><rect x="13" y="9" width="1" height="2" fill="#226633"/><rect x="15" y="9" width="2" height="3" fill="#9e7042"/><rect x="6" y="11" width="1" height="1" fill="#226633"/><rect x="7" y="11" width="2" height="1" fill="#704a28"/><rect x="9" y="11" width="1" height="1" fill="#d6a83c"/><rect x="10" y="11" width="2" height="1" fill="#704a28"/><rect x="12" y="11" width="1" height="1" fill="#226633"/><rect x="6" y="12" width="2" height="1" fill="#226633"/><rect x="8" y="12" width="3" height="1" fill="#489e4a"/><rect x="11" y="12" width="2" height="1" fill="#226633"/><rect x="7" y="13" width="2" height="2" fill="#226633"/><rect x="10" y="13" width="2" height="2" fill="#226633"/><rect x="6" y="15" width="3" height="1" fill="#704a28"/><rect x="10" y="15" width="3" height="1" fill="#704a28"/></g>
<g class="s2" transform="translate(24,0)"><rect x="7" y="0" width="6" height="1" fill="#226633"/><rect x="5" y="1" width="2" height="1" fill="#226633"/><rect x="7" y="1" width="6" height="1" fill="#489e4a"/><rect x="13" y="1" width="2" height="2" fill="#226633"/><rect x="16" y="1" width="2" height="1" fill="#cc3333"/><rect x="4" y="2" width="2" height="1" fill="#226633"/><rect x="6" y="2" width="7" height="1" fill="#489e4a"/><rect x="15" y="2" width="3" height="1" fill="#cc3333"/><rect x="3" y="3" width="13" height="1" fill="#226633"/><rect x="16" y="3" width="1" height="1" fill="#cc3333"/><rect x="5" y="4" width="1" height="1" fill="#7a522e"/><rect x="6" y="4" width="7" height="1" fill="#e8be98"/><rect x="13" y="4" width="1" height="1" fill="#7a522e"/><rect x="4" y="5" width="1" height="1" fill="#e8be98"/><rect x="5" y="5" width="1" height="1" fill="#262220"/><rect x="6" y="5" width="1" height="1" fill="#f0f0f0"/><rect x="7" y="5" width="3" height="1" fill="#e8be98"/><rect x="10" y="5" width="1" height="1" fill="#262220"/><rect x="11" y="5" width="1" height="1" fill="#f0f0f0"/><rect x="12" y="5" width="2" height="1" fill="#e8be98"/><rect x="14" y="5" width="1" height="2" fill="#c6946e"/><rect x="4" y="6" width="10" height="1" fill="#e8be98"/><rect x="5" y="7" width="1" height="2" fill="#c6946e"/><rect x="6" y="7" width="6" height="1" fill="#e8be98"/><rect x="12" y="7" width="1" height="1" fill="#c6946e"/><rect x="0" y="8" width="1" height="5" fill="#704a28"/><rect x="1" y="8" width="1" height="3" fill="#f0f0f0"/><rect x="3" y="8" width="2" height="1" fill="#e8be98"/><rect x="6" y="8" width="2" height="1" fill="#226633"/><rect x="8" y="8" width="2" height="1" fill="#489e4a"/><rect x="10" y="8" width="2" height="1" fill="#226633"/><rect x="12" y="8" width="1" height="1" fill="#489e4a"/><rect x="5" y="9" width="1" height="2" fill="#226633"/><rect x="6" y="9" width="7" height="2" fill="#489e4a"/><rect x="13" y="9" width="1" height="2" fill="#226633"/><rect x="15" y="9" width="2" height="3" fill="#9e7042"/><rect x="6" y="11" width="1" height="1" fill="#226633"/><rect x="7" y="11" width="2" height="1" fill="#704a28"/><rect x="9" y="11" width="1" height="1" fill="#d6a83c"/><rect x="10" y="11" width="2" height="1" fill="#704a28"/><rect x="12" y="11" width="1" height="1" fill="#226633"/><rect x="6" y="12" width="2" height="1" fill="#226633"/><rect x="8" y="12" width="3" height="1" fill="#489e4a"/><rect x="11" y="12" width="2" height="1" fill="#226633"/><rect x="7" y="13" width="2" height="2" fill="#226633"/><rect x="10" y="13" width="2" height="2" fill="#226633"/><rect x="6" y="15" width="3" height="1" fill="#704a28"/><rect x="10" y="15" width="3" height="1" fill="#704a28"/></g>
<g class="arrow"><rect x="22" y="8" width="4" height="1" fill="#9e7042"/><rect x="21" y="8" width="1" height="1" fill="#f0f0f0"/></g></svg>
